<mxfile host="app.diagrams.net" modified="2024-05-30T11:24:34.339Z" agent="Mozilla/5.0 (Windows NT 10.0; Win64; x64) AppleWebKit/537.36 (KHTML, like Gecko) Chrome/125.0.0.0 Safari/537.36" etag="ZUKeOlwblMuKqQQMpf2j" version="24.4.9" type="github">
  <diagram name="第 1 页" id="kKmJuMlr_V5biKtIgKQZ">
    <mxGraphModel dx="1742" dy="767" grid="1" gridSize="10" guides="1" tooltips="1" connect="1" arrows="1" fold="1" page="1" pageScale="1" pageWidth="827" pageHeight="1169" math="0" shadow="0">
      <root>
        <mxCell id="0" />
        <mxCell id="1" parent="0" />
        <mxCell id="mTM0F_0xe7LH2Tl3hvVo-1" value="买家" style="shape=umlActor;verticalLabelPosition=bottom;verticalAlign=top;html=1;outlineConnect=0;" vertex="1" parent="1">
          <mxGeometry x="230" y="200" width="30" height="60" as="geometry" />
        </mxCell>
        <mxCell id="mTM0F_0xe7LH2Tl3hvVo-2" value="管理员" style="shape=umlActor;verticalLabelPosition=bottom;verticalAlign=top;html=1;outlineConnect=0;" vertex="1" parent="1">
          <mxGeometry x="230" y="520" width="30" height="60" as="geometry" />
        </mxCell>
        <mxCell id="mTM0F_0xe7LH2Tl3hvVo-9" value="查看商品" style="ellipse;whiteSpace=wrap;html=1;strokeColor=default;align=center;verticalAlign=top;fontFamily=Helvetica;fontSize=12;fontColor=default;fillColor=default;" vertex="1" parent="1">
          <mxGeometry x="390" y="160" width="120" height="30" as="geometry" />
        </mxCell>
        <mxCell id="mTM0F_0xe7LH2Tl3hvVo-10" style="edgeStyle=orthogonalEdgeStyle;rounded=0;orthogonalLoop=1;jettySize=auto;html=1;exitX=0.5;exitY=1;exitDx=0;exitDy=0;fontFamily=Helvetica;fontSize=12;fontColor=default;" edge="1" parent="1" source="mTM0F_0xe7LH2Tl3hvVo-9" target="mTM0F_0xe7LH2Tl3hvVo-9">
          <mxGeometry relative="1" as="geometry" />
        </mxCell>
        <mxCell id="mTM0F_0xe7LH2Tl3hvVo-11" value="管理订单" style="ellipse;whiteSpace=wrap;html=1;strokeColor=default;align=center;verticalAlign=top;fontFamily=Helvetica;fontSize=12;fontColor=default;fillColor=default;" vertex="1" parent="1">
          <mxGeometry x="390" y="200" width="120" height="30" as="geometry" />
        </mxCell>
        <mxCell id="mTM0F_0xe7LH2Tl3hvVo-12" value="购买商品" style="ellipse;whiteSpace=wrap;html=1;strokeColor=default;align=center;verticalAlign=top;fontFamily=Helvetica;fontSize=12;fontColor=default;fillColor=default;" vertex="1" parent="1">
          <mxGeometry x="390" y="255" width="120" height="30" as="geometry" />
        </mxCell>
        <mxCell id="mTM0F_0xe7LH2Tl3hvVo-13" value="评价商品" style="ellipse;whiteSpace=wrap;html=1;strokeColor=default;align=center;verticalAlign=top;fontFamily=Helvetica;fontSize=12;fontColor=default;fillColor=default;" vertex="1" parent="1">
          <mxGeometry x="390" y="310" width="120" height="30" as="geometry" />
        </mxCell>
        <mxCell id="mTM0F_0xe7LH2Tl3hvVo-14" value="退货" style="ellipse;whiteSpace=wrap;html=1;strokeColor=default;align=center;verticalAlign=top;fontFamily=Helvetica;fontSize=12;fontColor=default;fillColor=default;" vertex="1" parent="1">
          <mxGeometry x="390" y="350" width="120" height="30" as="geometry" />
        </mxCell>
        <mxCell id="mTM0F_0xe7LH2Tl3hvVo-17" value="商品管理" style="ellipse;whiteSpace=wrap;html=1;strokeColor=default;align=center;verticalAlign=top;fontFamily=Helvetica;fontSize=12;fontColor=default;fillColor=default;" vertex="1" parent="1">
          <mxGeometry x="390" y="450" width="120" height="30" as="geometry" />
        </mxCell>
        <mxCell id="mTM0F_0xe7LH2Tl3hvVo-20" value="商品说明" style="ellipse;whiteSpace=wrap;html=1;strokeColor=default;align=center;verticalAlign=top;fontFamily=Helvetica;fontSize=12;fontColor=default;fillColor=default;" vertex="1" parent="1">
          <mxGeometry x="390" y="490" width="120" height="30" as="geometry" />
        </mxCell>
        <mxCell id="mTM0F_0xe7LH2Tl3hvVo-22" value="订单管理" style="ellipse;whiteSpace=wrap;html=1;strokeColor=default;align=center;verticalAlign=top;fontFamily=Helvetica;fontSize=12;fontColor=default;fillColor=default;" vertex="1" parent="1">
          <mxGeometry x="390" y="580" width="120" height="30" as="geometry" />
        </mxCell>
        <mxCell id="mTM0F_0xe7LH2Tl3hvVo-24" value="登录" style="ellipse;whiteSpace=wrap;html=1;strokeColor=default;align=center;verticalAlign=top;fontFamily=Helvetica;fontSize=12;fontColor=default;fillColor=default;" vertex="1" parent="1">
          <mxGeometry x="35" y="255" width="120" height="30" as="geometry" />
        </mxCell>
        <mxCell id="mTM0F_0xe7LH2Tl3hvVo-61" value="Classname" style="swimlane;fontStyle=1;align=center;verticalAlign=top;childLayout=stackLayout;horizontal=1;startSize=26;horizontalStack=0;resizeParent=1;resizeParentMax=0;resizeLast=0;collapsible=1;marginBottom=0;whiteSpace=wrap;html=1;strokeColor=default;fontFamily=Helvetica;fontSize=12;fontColor=default;fillColor=default;" vertex="1" parent="1">
          <mxGeometry x="80" y="1480" width="160" height="78" as="geometry" />
        </mxCell>
        <mxCell id="mTM0F_0xe7LH2Tl3hvVo-62" value="+ field: type" style="text;strokeColor=none;fillColor=none;align=left;verticalAlign=top;spacingLeft=4;spacingRight=4;overflow=hidden;rotatable=0;points=[[0,0.5],[1,0.5]];portConstraint=eastwest;whiteSpace=wrap;html=1;fontFamily=Helvetica;fontSize=12;fontColor=default;" vertex="1" parent="mTM0F_0xe7LH2Tl3hvVo-61">
          <mxGeometry y="26" width="160" height="26" as="geometry" />
        </mxCell>
        <mxCell id="mTM0F_0xe7LH2Tl3hvVo-64" value="+ method(type): type" style="text;strokeColor=none;fillColor=none;align=left;verticalAlign=top;spacingLeft=4;spacingRight=4;overflow=hidden;rotatable=0;points=[[0,0.5],[1,0.5]];portConstraint=eastwest;whiteSpace=wrap;html=1;fontFamily=Helvetica;fontSize=12;fontColor=default;" vertex="1" parent="mTM0F_0xe7LH2Tl3hvVo-61">
          <mxGeometry y="52" width="160" height="26" as="geometry" />
        </mxCell>
        <mxCell id="mTM0F_0xe7LH2Tl3hvVo-65" value="用户" style="shape=umlActor;verticalLabelPosition=bottom;verticalAlign=top;html=1;strokeColor=default;align=center;fontFamily=Helvetica;fontSize=12;fontColor=default;fillColor=default;" vertex="1" parent="1">
          <mxGeometry x="80" y="335" width="30" height="60" as="geometry" />
        </mxCell>
        <mxCell id="mTM0F_0xe7LH2Tl3hvVo-68" value="&amp;lt;&amp;lt;include&amp;gt;&amp;gt;" style="html=1;verticalAlign=bottom;labelBackgroundColor=none;endArrow=open;endFill=0;dashed=1;rounded=0;fontFamily=Helvetica;fontSize=12;fontColor=default;exitX=0.75;exitY=0.1;exitDx=0;exitDy=0;exitPerimeter=0;" edge="1" parent="1" source="mTM0F_0xe7LH2Tl3hvVo-65" target="mTM0F_0xe7LH2Tl3hvVo-24">
          <mxGeometry width="160" relative="1" as="geometry">
            <mxPoint x="160" y="340" as="sourcePoint" />
            <mxPoint x="320" y="340" as="targetPoint" />
          </mxGeometry>
        </mxCell>
        <mxCell id="mTM0F_0xe7LH2Tl3hvVo-69" value="" style="html=1;verticalAlign=bottom;labelBackgroundColor=none;endArrow=block;endFill=1;rounded=0;fontFamily=Helvetica;fontSize=12;fontColor=default;entryX=1;entryY=0.3333333333333333;entryDx=0;entryDy=0;entryPerimeter=0;exitX=0;exitY=1;exitDx=0;exitDy=0;exitPerimeter=0;" edge="1" parent="1" source="mTM0F_0xe7LH2Tl3hvVo-1" target="mTM0F_0xe7LH2Tl3hvVo-65">
          <mxGeometry width="160" relative="1" as="geometry">
            <mxPoint x="210" y="390" as="sourcePoint" />
            <mxPoint x="370" y="390" as="targetPoint" />
          </mxGeometry>
        </mxCell>
        <mxCell id="mTM0F_0xe7LH2Tl3hvVo-70" value="" style="html=1;verticalAlign=bottom;labelBackgroundColor=none;endArrow=block;endFill=1;rounded=0;fontFamily=Helvetica;fontSize=12;fontColor=default;entryX=1;entryY=0.3333333333333333;entryDx=0;entryDy=0;entryPerimeter=0;exitX=0.25;exitY=0.1;exitDx=0;exitDy=0;exitPerimeter=0;" edge="1" parent="1" source="mTM0F_0xe7LH2Tl3hvVo-2" target="mTM0F_0xe7LH2Tl3hvVo-65">
          <mxGeometry width="160" relative="1" as="geometry">
            <mxPoint x="230" y="260" as="sourcePoint" />
            <mxPoint x="110" y="355" as="targetPoint" />
            <Array as="points" />
          </mxGeometry>
        </mxCell>
        <mxCell id="mTM0F_0xe7LH2Tl3hvVo-79" value="" style="endArrow=none;html=1;rounded=0;fontFamily=Helvetica;fontSize=12;fontColor=default;exitX=0.75;exitY=0.1;exitDx=0;exitDy=0;exitPerimeter=0;" edge="1" parent="1" source="mTM0F_0xe7LH2Tl3hvVo-1" target="mTM0F_0xe7LH2Tl3hvVo-9">
          <mxGeometry width="50" height="50" relative="1" as="geometry">
            <mxPoint x="270" y="210" as="sourcePoint" />
            <mxPoint x="300" y="190" as="targetPoint" />
          </mxGeometry>
        </mxCell>
        <mxCell id="mTM0F_0xe7LH2Tl3hvVo-80" value="" style="endArrow=none;html=1;rounded=0;fontFamily=Helvetica;fontSize=12;fontColor=default;" edge="1" parent="1" source="mTM0F_0xe7LH2Tl3hvVo-1" target="mTM0F_0xe7LH2Tl3hvVo-12">
          <mxGeometry width="50" height="50" relative="1" as="geometry">
            <mxPoint x="280" y="260" as="sourcePoint" />
            <mxPoint x="410" y="270" as="targetPoint" />
            <Array as="points" />
          </mxGeometry>
        </mxCell>
        <mxCell id="mTM0F_0xe7LH2Tl3hvVo-81" value="" style="endArrow=none;html=1;rounded=0;fontFamily=Helvetica;fontSize=12;fontColor=default;entryX=0;entryY=1;entryDx=0;entryDy=0;" edge="1" parent="1" source="mTM0F_0xe7LH2Tl3hvVo-1" target="mTM0F_0xe7LH2Tl3hvVo-11">
          <mxGeometry width="50" height="50" relative="1" as="geometry">
            <mxPoint x="275" y="230" as="sourcePoint" />
            <mxPoint x="413.477416369818" y="236.30353678846882" as="targetPoint" />
            <Array as="points" />
          </mxGeometry>
        </mxCell>
        <mxCell id="mTM0F_0xe7LH2Tl3hvVo-82" value="" style="endArrow=none;html=1;rounded=0;fontFamily=Helvetica;fontSize=12;fontColor=default;" edge="1" parent="1" target="mTM0F_0xe7LH2Tl3hvVo-13">
          <mxGeometry width="50" height="50" relative="1" as="geometry">
            <mxPoint x="260" y="240" as="sourcePoint" />
            <mxPoint x="408.477416369818" y="328.15353678846884" as="targetPoint" />
            <Array as="points" />
          </mxGeometry>
        </mxCell>
        <mxCell id="mTM0F_0xe7LH2Tl3hvVo-83" value="" style="endArrow=none;html=1;rounded=0;fontFamily=Helvetica;fontSize=12;fontColor=default;exitX=0.7;exitY=0.717;exitDx=0;exitDy=0;exitPerimeter=0;" edge="1" parent="1" source="mTM0F_0xe7LH2Tl3hvVo-1">
          <mxGeometry width="50" height="50" relative="1" as="geometry">
            <mxPoint x="260" y="240" as="sourcePoint" />
            <mxPoint x="400" y="360" as="targetPoint" />
            <Array as="points" />
          </mxGeometry>
        </mxCell>
        <mxCell id="mTM0F_0xe7LH2Tl3hvVo-87" value="" style="endArrow=none;html=1;rounded=0;fontFamily=Helvetica;fontSize=12;fontColor=default;exitX=0.5;exitY=0.5;exitDx=0;exitDy=0;exitPerimeter=0;" edge="1" parent="1" source="mTM0F_0xe7LH2Tl3hvVo-2" target="mTM0F_0xe7LH2Tl3hvVo-22">
          <mxGeometry width="50" height="50" relative="1" as="geometry">
            <mxPoint x="340" y="640" as="sourcePoint" />
            <mxPoint x="390" y="590" as="targetPoint" />
          </mxGeometry>
        </mxCell>
        <mxCell id="mTM0F_0xe7LH2Tl3hvVo-89" value="" style="endArrow=none;html=1;rounded=0;fontFamily=Helvetica;fontSize=12;fontColor=default;exitX=1;exitY=0.3333333333333333;exitDx=0;exitDy=0;exitPerimeter=0;" edge="1" parent="1" source="mTM0F_0xe7LH2Tl3hvVo-2" target="mTM0F_0xe7LH2Tl3hvVo-20">
          <mxGeometry width="50" height="50" relative="1" as="geometry">
            <mxPoint x="270" y="575" as="sourcePoint" />
            <mxPoint x="320" y="525" as="targetPoint" />
          </mxGeometry>
        </mxCell>
        <mxCell id="mTM0F_0xe7LH2Tl3hvVo-90" value="" style="endArrow=none;html=1;rounded=0;fontFamily=Helvetica;fontSize=12;fontColor=default;" edge="1" parent="1" target="mTM0F_0xe7LH2Tl3hvVo-17">
          <mxGeometry width="50" height="50" relative="1" as="geometry">
            <mxPoint x="250" y="530" as="sourcePoint" />
            <mxPoint x="300" y="480" as="targetPoint" />
          </mxGeometry>
        </mxCell>
        <mxCell id="mTM0F_0xe7LH2Tl3hvVo-95" value="" style="ellipse;html=1;shape=endState;fillColor=#000000;strokeColor=#ff0000;align=center;verticalAlign=top;fontFamily=Helvetica;fontSize=12;fontColor=default;" vertex="1" parent="1">
          <mxGeometry x="600" y="1139" width="30" height="30" as="geometry" />
        </mxCell>
        <mxCell id="mTM0F_0xe7LH2Tl3hvVo-96" value="" style="ellipse;html=1;shape=startState;fillColor=#000000;strokeColor=#ff0000;align=center;verticalAlign=top;fontFamily=Helvetica;fontSize=12;fontColor=default;" vertex="1" parent="1">
          <mxGeometry x="275" y="710" width="30" height="30" as="geometry" />
        </mxCell>
        <mxCell id="mTM0F_0xe7LH2Tl3hvVo-97" value="" style="edgeStyle=orthogonalEdgeStyle;html=1;verticalAlign=bottom;endArrow=open;endSize=8;strokeColor=#ff0000;rounded=0;fontFamily=Helvetica;fontSize=12;fontColor=default;" edge="1" source="mTM0F_0xe7LH2Tl3hvVo-96" parent="1">
          <mxGeometry relative="1" as="geometry">
            <mxPoint x="290" y="800" as="targetPoint" />
          </mxGeometry>
        </mxCell>
        <mxCell id="mTM0F_0xe7LH2Tl3hvVo-63" value="" style="line;strokeWidth=1;fillColor=none;align=left;verticalAlign=middle;spacingTop=-1;spacingLeft=3;spacingRight=3;rotatable=0;labelPosition=right;points=[];portConstraint=eastwest;strokeColor=inherit;fontFamily=Helvetica;fontSize=12;fontColor=default;" vertex="1" parent="1">
          <mxGeometry x="50" y="1580" width="160" height="8" as="geometry" />
        </mxCell>
        <mxCell id="mTM0F_0xe7LH2Tl3hvVo-98" value="" style="rhombus;whiteSpace=wrap;html=1;fontColor=#000000;fillColor=#ffffc0;strokeColor=#ff0000;align=center;verticalAlign=top;fontFamily=Helvetica;fontSize=12;" vertex="1" parent="1">
          <mxGeometry x="250" y="870" width="80" height="40" as="geometry" />
        </mxCell>
        <mxCell id="mTM0F_0xe7LH2Tl3hvVo-99" value="不购买" style="edgeStyle=orthogonalEdgeStyle;html=1;align=left;verticalAlign=bottom;endArrow=open;endSize=8;strokeColor=#ff0000;rounded=0;fontFamily=Helvetica;fontSize=12;fontColor=default;" edge="1" source="mTM0F_0xe7LH2Tl3hvVo-98" parent="1">
          <mxGeometry x="-1" relative="1" as="geometry">
            <mxPoint x="430" y="890" as="targetPoint" />
          </mxGeometry>
        </mxCell>
        <mxCell id="mTM0F_0xe7LH2Tl3hvVo-100" value="购买" style="edgeStyle=orthogonalEdgeStyle;html=1;align=left;verticalAlign=top;endArrow=open;endSize=8;strokeColor=#ff0000;rounded=0;fontFamily=Helvetica;fontSize=12;fontColor=default;" edge="1" source="mTM0F_0xe7LH2Tl3hvVo-98" parent="1">
          <mxGeometry x="-0.3389" y="20" relative="1" as="geometry">
            <mxPoint x="290" y="950" as="targetPoint" />
            <mxPoint as="offset" />
          </mxGeometry>
        </mxCell>
        <mxCell id="mTM0F_0xe7LH2Tl3hvVo-102" value="" style="rhombus;whiteSpace=wrap;html=1;fontColor=#000000;fillColor=#ffffc0;strokeColor=#ff0000;align=center;verticalAlign=top;fontFamily=Helvetica;fontSize=12;" vertex="1" parent="1">
          <mxGeometry x="250" y="1040" width="80" height="40" as="geometry" />
        </mxCell>
        <mxCell id="mTM0F_0xe7LH2Tl3hvVo-103" value="不退货" style="edgeStyle=orthogonalEdgeStyle;html=1;align=left;verticalAlign=bottom;endArrow=open;endSize=8;strokeColor=#ff0000;rounded=0;fontFamily=Helvetica;fontSize=12;fontColor=default;entryX=0;entryY=0.75;entryDx=0;entryDy=0;" edge="1" source="mTM0F_0xe7LH2Tl3hvVo-102" parent="1" target="mTM0F_0xe7LH2Tl3hvVo-118">
          <mxGeometry x="-1" relative="1" as="geometry">
            <mxPoint x="390" y="1060" as="targetPoint" />
          </mxGeometry>
        </mxCell>
        <mxCell id="mTM0F_0xe7LH2Tl3hvVo-104" value="进行退货" style="edgeStyle=orthogonalEdgeStyle;html=1;align=left;verticalAlign=top;endArrow=open;endSize=8;strokeColor=#ff0000;rounded=0;fontFamily=Helvetica;fontSize=12;fontColor=default;" edge="1" source="mTM0F_0xe7LH2Tl3hvVo-102" parent="1">
          <mxGeometry x="-1" relative="1" as="geometry">
            <mxPoint x="290" y="1130" as="targetPoint" />
          </mxGeometry>
        </mxCell>
        <mxCell id="mTM0F_0xe7LH2Tl3hvVo-107" value="" style="rhombus;whiteSpace=wrap;html=1;fontColor=#000000;fillColor=#ffffc0;strokeColor=#ff0000;align=center;verticalAlign=top;fontFamily=Helvetica;fontSize=12;" vertex="1" parent="1">
          <mxGeometry x="420" y="1130" width="80" height="40" as="geometry" />
        </mxCell>
        <mxCell id="mTM0F_0xe7LH2Tl3hvVo-108" value="不再购物" style="edgeStyle=orthogonalEdgeStyle;html=1;align=left;verticalAlign=bottom;endArrow=open;endSize=8;strokeColor=#ff0000;rounded=0;fontFamily=Helvetica;fontSize=12;fontColor=default;" edge="1" source="mTM0F_0xe7LH2Tl3hvVo-107" parent="1">
          <mxGeometry x="-1" relative="1" as="geometry">
            <mxPoint x="600" y="1150" as="targetPoint" />
          </mxGeometry>
        </mxCell>
        <mxCell id="mTM0F_0xe7LH2Tl3hvVo-109" value="继续购物" style="edgeStyle=orthogonalEdgeStyle;html=1;align=left;verticalAlign=top;endArrow=open;endSize=8;strokeColor=#ff0000;rounded=0;fontFamily=Helvetica;fontSize=12;fontColor=default;" edge="1" source="mTM0F_0xe7LH2Tl3hvVo-107" parent="1">
          <mxGeometry x="-1" relative="1" as="geometry">
            <mxPoint x="460" y="1210" as="targetPoint" />
          </mxGeometry>
        </mxCell>
        <mxCell id="mTM0F_0xe7LH2Tl3hvVo-110" value="购物" style="rounded=1;whiteSpace=wrap;html=1;arcSize=40;fontColor=#000000;fillColor=#ffffc0;strokeColor=#ff0000;align=center;verticalAlign=top;fontFamily=Helvetica;fontSize=12;" vertex="1" parent="1">
          <mxGeometry x="400" y="1210" width="120" height="40" as="geometry" />
        </mxCell>
        <mxCell id="mTM0F_0xe7LH2Tl3hvVo-111" value="" style="edgeStyle=orthogonalEdgeStyle;html=1;verticalAlign=bottom;endArrow=open;endSize=8;strokeColor=#ff0000;rounded=0;fontFamily=Helvetica;fontSize=12;fontColor=default;" edge="1" source="mTM0F_0xe7LH2Tl3hvVo-110" parent="1">
          <mxGeometry relative="1" as="geometry">
            <mxPoint x="229" y="810" as="targetPoint" />
            <mxPoint x="319" y="1070" as="sourcePoint" />
            <Array as="points">
              <mxPoint x="70" y="1220" />
              <mxPoint x="70" y="810" />
            </Array>
          </mxGeometry>
        </mxCell>
        <mxCell id="mTM0F_0xe7LH2Tl3hvVo-112" value="查看商品" style="rounded=1;whiteSpace=wrap;html=1;arcSize=40;fontColor=#000000;fillColor=#ffffc0;strokeColor=#ff0000;align=center;verticalAlign=top;fontFamily=Helvetica;fontSize=12;" vertex="1" parent="1">
          <mxGeometry x="230" y="800" width="120" height="40" as="geometry" />
        </mxCell>
        <mxCell id="mTM0F_0xe7LH2Tl3hvVo-113" value="" style="edgeStyle=orthogonalEdgeStyle;html=1;verticalAlign=bottom;endArrow=open;endSize=8;strokeColor=#ff0000;rounded=0;fontFamily=Helvetica;fontSize=12;fontColor=default;" edge="1" source="mTM0F_0xe7LH2Tl3hvVo-112" parent="1">
          <mxGeometry relative="1" as="geometry">
            <mxPoint x="290" y="880" as="targetPoint" />
          </mxGeometry>
        </mxCell>
        <mxCell id="mTM0F_0xe7LH2Tl3hvVo-114" value="添加进订单" style="rounded=1;whiteSpace=wrap;html=1;arcSize=40;fontColor=#000000;fillColor=#ffffc0;strokeColor=#ff0000;align=center;verticalAlign=top;fontFamily=Helvetica;fontSize=12;" vertex="1" parent="1">
          <mxGeometry x="230" y="950" width="120" height="40" as="geometry" />
        </mxCell>
        <mxCell id="mTM0F_0xe7LH2Tl3hvVo-115" value="" style="edgeStyle=orthogonalEdgeStyle;html=1;verticalAlign=bottom;endArrow=open;endSize=8;strokeColor=#ff0000;rounded=0;fontFamily=Helvetica;fontSize=12;fontColor=default;" edge="1" source="mTM0F_0xe7LH2Tl3hvVo-114" parent="1">
          <mxGeometry relative="1" as="geometry">
            <mxPoint x="290" y="1040" as="targetPoint" />
          </mxGeometry>
        </mxCell>
        <mxCell id="mTM0F_0xe7LH2Tl3hvVo-116" value="退货" style="rounded=1;whiteSpace=wrap;html=1;arcSize=40;fontColor=#000000;fillColor=#ffffc0;strokeColor=#ff0000;align=center;verticalAlign=top;fontFamily=Helvetica;fontSize=12;" vertex="1" parent="1">
          <mxGeometry x="240" y="1129" width="120" height="40" as="geometry" />
        </mxCell>
        <mxCell id="mTM0F_0xe7LH2Tl3hvVo-117" value="" style="edgeStyle=orthogonalEdgeStyle;html=1;verticalAlign=bottom;endArrow=open;endSize=8;strokeColor=#ff0000;rounded=0;fontFamily=Helvetica;fontSize=12;fontColor=default;entryX=0;entryY=0.5;entryDx=0;entryDy=0;" edge="1" source="mTM0F_0xe7LH2Tl3hvVo-116" parent="1" target="mTM0F_0xe7LH2Tl3hvVo-107">
          <mxGeometry relative="1" as="geometry">
            <mxPoint x="410" y="1149" as="targetPoint" />
          </mxGeometry>
        </mxCell>
        <mxCell id="mTM0F_0xe7LH2Tl3hvVo-118" value="评价商品" style="rounded=1;whiteSpace=wrap;html=1;arcSize=40;fontColor=#000000;fillColor=#ffffc0;strokeColor=#ff0000;align=center;verticalAlign=top;fontFamily=Helvetica;fontSize=12;" vertex="1" parent="1">
          <mxGeometry x="400" y="1030" width="120" height="40" as="geometry" />
        </mxCell>
        <mxCell id="mTM0F_0xe7LH2Tl3hvVo-119" value="" style="edgeStyle=orthogonalEdgeStyle;html=1;verticalAlign=bottom;endArrow=open;endSize=8;strokeColor=#ff0000;rounded=0;fontFamily=Helvetica;fontSize=12;fontColor=default;" edge="1" source="mTM0F_0xe7LH2Tl3hvVo-118" parent="1">
          <mxGeometry relative="1" as="geometry">
            <mxPoint x="460" y="1130" as="targetPoint" />
          </mxGeometry>
        </mxCell>
        <mxCell id="mTM0F_0xe7LH2Tl3hvVo-120" value="登录" style="shape=umlFrame;whiteSpace=wrap;html=1;pointerEvents=0;strokeColor=default;align=center;verticalAlign=top;fontFamily=Helvetica;fontSize=12;fontColor=default;fillColor=default;" vertex="1" parent="1">
          <mxGeometry x="155" y="1754" width="675" height="426" as="geometry" />
        </mxCell>
        <mxCell id="mTM0F_0xe7LH2Tl3hvVo-121" value=":用户" style="shape=umlLifeline;perimeter=lifelinePerimeter;whiteSpace=wrap;html=1;container=1;dropTarget=0;collapsible=0;recursiveResize=0;outlineConnect=0;portConstraint=eastwest;newEdgeStyle={&quot;curved&quot;:0,&quot;rounded&quot;:0};strokeColor=default;align=center;verticalAlign=top;fontFamily=Helvetica;fontSize=12;fontColor=default;fillColor=default;" vertex="1" parent="1">
          <mxGeometry x="230" y="1690" width="100" height="430" as="geometry" />
        </mxCell>
        <mxCell id="mTM0F_0xe7LH2Tl3hvVo-122" value=":用户登录窗口" style="shape=umlLifeline;perimeter=lifelinePerimeter;whiteSpace=wrap;html=1;container=1;dropTarget=0;collapsible=0;recursiveResize=0;outlineConnect=0;portConstraint=eastwest;newEdgeStyle={&quot;curved&quot;:0,&quot;rounded&quot;:0};strokeColor=default;align=center;verticalAlign=top;fontFamily=Helvetica;fontSize=12;fontColor=default;fillColor=default;" vertex="1" parent="1">
          <mxGeometry x="420" y="1690" width="100" height="440" as="geometry" />
        </mxCell>
        <mxCell id="mTM0F_0xe7LH2Tl3hvVo-124" value="" style="html=1;points=[[0,0,0,0,5],[0,1,0,0,-5],[1,0,0,0,5],[1,1,0,0,-5]];perimeter=orthogonalPerimeter;outlineConnect=0;targetShapes=umlLifeline;portConstraint=eastwest;newEdgeStyle={&quot;curved&quot;:0,&quot;rounded&quot;:0};strokeColor=default;align=center;verticalAlign=top;fontFamily=Helvetica;fontSize=12;fontColor=default;fillColor=default;" vertex="1" parent="mTM0F_0xe7LH2Tl3hvVo-122">
          <mxGeometry x="45" y="110" width="10" height="80" as="geometry" />
        </mxCell>
        <mxCell id="mTM0F_0xe7LH2Tl3hvVo-128" value="" style="html=1;points=[[0,0,0,0,5],[0,1,0,0,-5],[1,0,0,0,5],[1,1,0,0,-5]];perimeter=orthogonalPerimeter;outlineConnect=0;targetShapes=umlLifeline;portConstraint=eastwest;newEdgeStyle={&quot;curved&quot;:0,&quot;rounded&quot;:0};strokeColor=default;align=center;verticalAlign=top;fontFamily=Helvetica;fontSize=12;fontColor=default;fillColor=default;" vertex="1" parent="mTM0F_0xe7LH2Tl3hvVo-122">
          <mxGeometry x="45" y="220" width="10" height="120" as="geometry" />
        </mxCell>
        <mxCell id="mTM0F_0xe7LH2Tl3hvVo-123" value=":服务器" style="shape=umlLifeline;perimeter=lifelinePerimeter;whiteSpace=wrap;html=1;container=1;dropTarget=0;collapsible=0;recursiveResize=0;outlineConnect=0;portConstraint=eastwest;newEdgeStyle={&quot;curved&quot;:0,&quot;rounded&quot;:0};strokeColor=default;align=center;verticalAlign=top;fontFamily=Helvetica;fontSize=12;fontColor=default;fillColor=default;" vertex="1" parent="1">
          <mxGeometry x="610" y="1690" width="100" height="420" as="geometry" />
        </mxCell>
        <mxCell id="mTM0F_0xe7LH2Tl3hvVo-130" value="" style="html=1;points=[[0,0,0,0,5],[0,1,0,0,-5],[1,0,0,0,5],[1,1,0,0,-5]];perimeter=orthogonalPerimeter;outlineConnect=0;targetShapes=umlLifeline;portConstraint=eastwest;newEdgeStyle={&quot;curved&quot;:0,&quot;rounded&quot;:0};strokeColor=default;align=center;verticalAlign=top;fontFamily=Helvetica;fontSize=12;fontColor=default;fillColor=default;" vertex="1" parent="mTM0F_0xe7LH2Tl3hvVo-123">
          <mxGeometry x="45" y="250" width="10" height="80" as="geometry" />
        </mxCell>
        <mxCell id="mTM0F_0xe7LH2Tl3hvVo-132" value="" style="html=1;points=[[0,0,0,0,5],[0,1,0,0,-5],[1,0,0,0,5],[1,1,0,0,-5]];perimeter=orthogonalPerimeter;outlineConnect=0;targetShapes=umlLifeline;portConstraint=eastwest;newEdgeStyle={&quot;curved&quot;:0,&quot;rounded&quot;:0};strokeColor=default;align=center;verticalAlign=top;fontFamily=Helvetica;fontSize=12;fontColor=default;fillColor=default;" vertex="1" parent="mTM0F_0xe7LH2Tl3hvVo-123">
          <mxGeometry x="50" y="280" width="10" height="40" as="geometry" />
        </mxCell>
        <mxCell id="mTM0F_0xe7LH2Tl3hvVo-133" value="5 验证用户信息" style="html=1;align=left;spacingLeft=2;endArrow=block;rounded=0;edgeStyle=orthogonalEdgeStyle;curved=0;rounded=0;fontFamily=Helvetica;fontSize=12;fontColor=default;" edge="1" target="mTM0F_0xe7LH2Tl3hvVo-132" parent="mTM0F_0xe7LH2Tl3hvVo-123">
          <mxGeometry relative="1" as="geometry">
            <mxPoint x="55" y="260" as="sourcePoint" />
            <Array as="points">
              <mxPoint x="85" y="290" />
            </Array>
          </mxGeometry>
        </mxCell>
        <mxCell id="mTM0F_0xe7LH2Tl3hvVo-125" value="1 打开登录页面" style="html=1;verticalAlign=bottom;startArrow=oval;endArrow=block;startSize=8;curved=0;rounded=0;entryX=0;entryY=0;entryDx=0;entryDy=5;fontFamily=Helvetica;fontSize=12;fontColor=default;" edge="1" target="mTM0F_0xe7LH2Tl3hvVo-124" parent="1" source="mTM0F_0xe7LH2Tl3hvVo-121">
          <mxGeometry relative="1" as="geometry">
            <mxPoint x="400" y="1805" as="sourcePoint" />
          </mxGeometry>
        </mxCell>
        <mxCell id="mTM0F_0xe7LH2Tl3hvVo-127" value="2返回登录页面" style="html=1;verticalAlign=bottom;endArrow=open;dashed=1;endSize=8;curved=0;rounded=0;fontFamily=Helvetica;fontSize=12;fontColor=default;" edge="1" parent="1" target="mTM0F_0xe7LH2Tl3hvVo-121">
          <mxGeometry relative="1" as="geometry">
            <mxPoint x="470" y="1860" as="sourcePoint" />
            <mxPoint x="390" y="1860" as="targetPoint" />
          </mxGeometry>
        </mxCell>
        <mxCell id="mTM0F_0xe7LH2Tl3hvVo-129" value="3 输入账号密码" style="html=1;verticalAlign=bottom;startArrow=oval;endArrow=block;startSize=8;curved=0;rounded=0;entryX=0;entryY=0;entryDx=0;entryDy=5;fontFamily=Helvetica;fontSize=12;fontColor=default;" edge="1" target="mTM0F_0xe7LH2Tl3hvVo-128" parent="1" source="mTM0F_0xe7LH2Tl3hvVo-121">
          <mxGeometry relative="1" as="geometry">
            <mxPoint x="400" y="1915" as="sourcePoint" />
          </mxGeometry>
        </mxCell>
        <mxCell id="mTM0F_0xe7LH2Tl3hvVo-131" value="4 发送用户信息" style="html=1;verticalAlign=bottom;startArrow=oval;endArrow=block;startSize=8;curved=0;rounded=0;entryX=0;entryY=0;entryDx=0;entryDy=5;fontFamily=Helvetica;fontSize=12;fontColor=default;" edge="1" target="mTM0F_0xe7LH2Tl3hvVo-130" parent="1" source="mTM0F_0xe7LH2Tl3hvVo-122">
          <mxGeometry x="0.0027" relative="1" as="geometry">
            <mxPoint x="585" y="1945" as="sourcePoint" />
            <mxPoint as="offset" />
          </mxGeometry>
        </mxCell>
        <mxCell id="mTM0F_0xe7LH2Tl3hvVo-134" value="6 返回验证结果" style="html=1;verticalAlign=bottom;endArrow=open;dashed=1;endSize=8;curved=0;rounded=0;fontFamily=Helvetica;fontSize=12;fontColor=default;" edge="1" parent="1" target="mTM0F_0xe7LH2Tl3hvVo-122">
          <mxGeometry x="-0.0028" relative="1" as="geometry">
            <mxPoint x="650" y="2010" as="sourcePoint" />
            <mxPoint x="570" y="2010" as="targetPoint" />
            <mxPoint as="offset" />
          </mxGeometry>
        </mxCell>
        <mxCell id="mTM0F_0xe7LH2Tl3hvVo-136" value="7 登录信息提示" style="html=1;verticalAlign=bottom;endArrow=open;dashed=1;endSize=8;curved=0;rounded=0;fontFamily=Helvetica;fontSize=12;fontColor=default;" edge="1" parent="1">
          <mxGeometry relative="1" as="geometry">
            <mxPoint x="460.5" y="2020" as="sourcePoint" />
            <mxPoint x="275" y="2020" as="targetPoint" />
          </mxGeometry>
        </mxCell>
        <mxCell id="mTM0F_0xe7LH2Tl3hvVo-137" value="查看商品&amp;nbsp; &amp;nbsp; &amp;nbsp; &amp;nbsp; &amp;nbsp;" style="shape=umlFrame;whiteSpace=wrap;html=1;pointerEvents=0;strokeColor=default;align=center;verticalAlign=top;fontFamily=Helvetica;fontSize=12;fontColor=default;fillColor=default;" vertex="1" parent="1">
          <mxGeometry x="140" y="2290" width="550" height="340" as="geometry" />
        </mxCell>
        <mxCell id="mTM0F_0xe7LH2Tl3hvVo-138" value=":买家" style="shape=umlLifeline;perimeter=lifelinePerimeter;whiteSpace=wrap;html=1;container=1;dropTarget=0;collapsible=0;recursiveResize=0;outlineConnect=0;portConstraint=eastwest;newEdgeStyle={&quot;curved&quot;:0,&quot;rounded&quot;:0};strokeColor=default;align=center;verticalAlign=top;fontFamily=Helvetica;fontSize=12;fontColor=default;fillColor=default;" vertex="1" parent="1">
          <mxGeometry x="230" y="2240" width="100" height="300" as="geometry" />
        </mxCell>
        <mxCell id="mTM0F_0xe7LH2Tl3hvVo-139" value=":搜索界面" style="shape=umlLifeline;perimeter=lifelinePerimeter;whiteSpace=wrap;html=1;container=1;dropTarget=0;collapsible=0;recursiveResize=0;outlineConnect=0;portConstraint=eastwest;newEdgeStyle={&quot;curved&quot;:0,&quot;rounded&quot;:0};strokeColor=default;align=center;verticalAlign=top;fontFamily=Helvetica;fontSize=12;fontColor=default;fillColor=default;" vertex="1" parent="1">
          <mxGeometry x="370" y="2240" width="100" height="300" as="geometry" />
        </mxCell>
        <mxCell id="mTM0F_0xe7LH2Tl3hvVo-142" value="" style="html=1;points=[[0,0,0,0,5],[0,1,0,0,-5],[1,0,0,0,5],[1,1,0,0,-5]];perimeter=orthogonalPerimeter;outlineConnect=0;targetShapes=umlLifeline;portConstraint=eastwest;newEdgeStyle={&quot;curved&quot;:0,&quot;rounded&quot;:0};strokeColor=default;align=center;verticalAlign=top;fontFamily=Helvetica;fontSize=12;fontColor=default;fillColor=default;" vertex="1" parent="mTM0F_0xe7LH2Tl3hvVo-139">
          <mxGeometry x="45" y="110" width="10" height="50" as="geometry" />
        </mxCell>
        <mxCell id="mTM0F_0xe7LH2Tl3hvVo-145" value="" style="html=1;points=[[0,0,0,0,5],[0,1,0,0,-5],[1,0,0,0,5],[1,1,0,0,-5]];perimeter=orthogonalPerimeter;outlineConnect=0;targetShapes=umlLifeline;portConstraint=eastwest;newEdgeStyle={&quot;curved&quot;:0,&quot;rounded&quot;:0};strokeColor=default;align=center;verticalAlign=top;fontFamily=Helvetica;fontSize=12;fontColor=default;fillColor=default;" vertex="1" parent="mTM0F_0xe7LH2Tl3hvVo-139">
          <mxGeometry x="45" y="180" width="10" height="80" as="geometry" />
        </mxCell>
        <mxCell id="mTM0F_0xe7LH2Tl3hvVo-140" value=":服务器" style="shape=umlLifeline;perimeter=lifelinePerimeter;whiteSpace=wrap;html=1;container=1;dropTarget=0;collapsible=0;recursiveResize=0;outlineConnect=0;portConstraint=eastwest;newEdgeStyle={&quot;curved&quot;:0,&quot;rounded&quot;:0};strokeColor=default;align=center;verticalAlign=top;fontFamily=Helvetica;fontSize=12;fontColor=default;fillColor=default;" vertex="1" parent="1">
          <mxGeometry x="510" y="2240" width="100" height="300" as="geometry" />
        </mxCell>
        <mxCell id="mTM0F_0xe7LH2Tl3hvVo-147" value="" style="html=1;points=[[0,0,0,0,5],[0,1,0,0,-5],[1,0,0,0,5],[1,1,0,0,-5]];perimeter=orthogonalPerimeter;outlineConnect=0;targetShapes=umlLifeline;portConstraint=eastwest;newEdgeStyle={&quot;curved&quot;:0,&quot;rounded&quot;:0};strokeColor=default;align=center;verticalAlign=top;fontFamily=Helvetica;fontSize=12;fontColor=default;fillColor=default;" vertex="1" parent="mTM0F_0xe7LH2Tl3hvVo-140">
          <mxGeometry x="45" y="200" width="10" height="80" as="geometry" />
        </mxCell>
        <mxCell id="mTM0F_0xe7LH2Tl3hvVo-143" value="1 点击搜索界面" style="html=1;verticalAlign=bottom;startArrow=oval;endArrow=block;startSize=8;curved=0;rounded=0;entryX=0;entryY=0;entryDx=0;entryDy=5;fontFamily=Helvetica;fontSize=12;fontColor=default;" edge="1" target="mTM0F_0xe7LH2Tl3hvVo-142" parent="1" source="mTM0F_0xe7LH2Tl3hvVo-138">
          <mxGeometry relative="1" as="geometry">
            <mxPoint x="345" y="2355" as="sourcePoint" />
          </mxGeometry>
        </mxCell>
        <mxCell id="mTM0F_0xe7LH2Tl3hvVo-144" value="2 返回搜索界面" style="html=1;verticalAlign=bottom;endArrow=open;dashed=1;endSize=8;curved=0;rounded=0;fontFamily=Helvetica;fontSize=12;fontColor=default;" edge="1" parent="1" source="mTM0F_0xe7LH2Tl3hvVo-142" target="mTM0F_0xe7LH2Tl3hvVo-138">
          <mxGeometry relative="1" as="geometry">
            <mxPoint x="360" y="2400" as="sourcePoint" />
            <mxPoint x="280" y="2400" as="targetPoint" />
            <Array as="points">
              <mxPoint x="350" y="2390" />
            </Array>
          </mxGeometry>
        </mxCell>
        <mxCell id="mTM0F_0xe7LH2Tl3hvVo-146" value="3 输入搜索信息" style="html=1;verticalAlign=bottom;startArrow=oval;endArrow=block;startSize=8;curved=0;rounded=0;entryX=0;entryY=0;entryDx=0;entryDy=5;fontFamily=Helvetica;fontSize=12;fontColor=default;" edge="1" target="mTM0F_0xe7LH2Tl3hvVo-145" parent="1" source="mTM0F_0xe7LH2Tl3hvVo-138">
          <mxGeometry relative="1" as="geometry">
            <mxPoint x="345" y="2425" as="sourcePoint" />
          </mxGeometry>
        </mxCell>
        <mxCell id="mTM0F_0xe7LH2Tl3hvVo-148" value="4 发送信息请求" style="html=1;verticalAlign=bottom;startArrow=oval;endArrow=block;startSize=8;curved=0;rounded=0;entryX=0;entryY=0;entryDx=0;entryDy=5;fontFamily=Helvetica;fontSize=12;fontColor=default;" edge="1" target="mTM0F_0xe7LH2Tl3hvVo-147" parent="1" source="mTM0F_0xe7LH2Tl3hvVo-139">
          <mxGeometry relative="1" as="geometry">
            <mxPoint x="485" y="2445" as="sourcePoint" />
          </mxGeometry>
        </mxCell>
        <mxCell id="mTM0F_0xe7LH2Tl3hvVo-149" value="5 返回商品信息列表" style="html=1;verticalAlign=bottom;endArrow=open;dashed=1;endSize=8;curved=0;rounded=0;fontFamily=Helvetica;fontSize=12;fontColor=default;" edge="1" parent="1">
          <mxGeometry x="-0.0038" relative="1" as="geometry">
            <mxPoint x="550" y="2480" as="sourcePoint" />
            <mxPoint x="430" y="2480" as="targetPoint" />
            <mxPoint as="offset" />
          </mxGeometry>
        </mxCell>
        <mxCell id="mTM0F_0xe7LH2Tl3hvVo-150" value="6 显示商品结果界面" style="html=1;verticalAlign=bottom;endArrow=open;dashed=1;endSize=8;curved=0;rounded=0;fontFamily=Helvetica;fontSize=12;fontColor=default;" edge="1" parent="1" target="mTM0F_0xe7LH2Tl3hvVo-138">
          <mxGeometry relative="1" as="geometry">
            <mxPoint x="410" y="2490" as="sourcePoint" />
            <mxPoint x="330" y="2490" as="targetPoint" />
          </mxGeometry>
        </mxCell>
        <mxCell id="mTM0F_0xe7LH2Tl3hvVo-151" value="Classname" style="swimlane;fontStyle=1;align=center;verticalAlign=top;childLayout=stackLayout;horizontal=1;startSize=26;horizontalStack=0;resizeParent=1;resizeParentMax=0;resizeLast=0;collapsible=1;marginBottom=0;whiteSpace=wrap;html=1;strokeColor=default;fontFamily=Helvetica;fontSize=12;fontColor=default;fillColor=default;" vertex="1" parent="1">
          <mxGeometry x="1010" y="260" width="160" height="86" as="geometry" />
        </mxCell>
        <mxCell id="mTM0F_0xe7LH2Tl3hvVo-152" value="+ field: type" style="text;strokeColor=none;fillColor=none;align=left;verticalAlign=top;spacingLeft=4;spacingRight=4;overflow=hidden;rotatable=0;points=[[0,0.5],[1,0.5]];portConstraint=eastwest;whiteSpace=wrap;html=1;fontFamily=Helvetica;fontSize=12;fontColor=default;" vertex="1" parent="mTM0F_0xe7LH2Tl3hvVo-151">
          <mxGeometry y="26" width="160" height="26" as="geometry" />
        </mxCell>
        <mxCell id="mTM0F_0xe7LH2Tl3hvVo-153" value="" style="line;strokeWidth=1;fillColor=none;align=left;verticalAlign=middle;spacingTop=-1;spacingLeft=3;spacingRight=3;rotatable=0;labelPosition=right;points=[];portConstraint=eastwest;strokeColor=inherit;fontFamily=Helvetica;fontSize=12;fontColor=default;" vertex="1" parent="mTM0F_0xe7LH2Tl3hvVo-151">
          <mxGeometry y="52" width="160" height="8" as="geometry" />
        </mxCell>
        <mxCell id="mTM0F_0xe7LH2Tl3hvVo-154" value="+ method(type): type" style="text;strokeColor=none;fillColor=none;align=left;verticalAlign=top;spacingLeft=4;spacingRight=4;overflow=hidden;rotatable=0;points=[[0,0.5],[1,0.5]];portConstraint=eastwest;whiteSpace=wrap;html=1;fontFamily=Helvetica;fontSize=12;fontColor=default;" vertex="1" parent="mTM0F_0xe7LH2Tl3hvVo-151">
          <mxGeometry y="60" width="160" height="26" as="geometry" />
        </mxCell>
        <mxCell id="mTM0F_0xe7LH2Tl3hvVo-155" value="User" style="swimlane;fontStyle=1;align=center;verticalAlign=top;childLayout=stackLayout;horizontal=1;startSize=28.933334350585938;horizontalStack=0;resizeParent=1;resizeParentMax=0;resizeLast=0;collapsible=0;marginBottom=0;" vertex="1" parent="1">
          <mxGeometry x="1170" y="1744.07" width="70" height="65.93333435058594" as="geometry" />
        </mxCell>
        <mxCell id="mTM0F_0xe7LH2Tl3hvVo-156" style="line;strokeWidth=1;fillColor=none;align=left;verticalAlign=middle;spacingTop=-1;spacingLeft=3;spacingRight=3;rotatable=0;labelPosition=right;points=[];portConstraint=eastwest;strokeColor=inherit;" vertex="1" parent="mTM0F_0xe7LH2Tl3hvVo-155">
          <mxGeometry y="28.933334350585938" width="70" height="8" as="geometry" />
        </mxCell>
        <mxCell id="mTM0F_0xe7LH2Tl3hvVo-157" value="+login()" style="text;strokeColor=none;fillColor=none;align=left;verticalAlign=top;spacingLeft=4;spacingRight=4;overflow=hidden;rotatable=0;points=[[0,0.5],[1,0.5]];portConstraint=eastwest;" vertex="1" parent="mTM0F_0xe7LH2Tl3hvVo-155">
          <mxGeometry y="36.93333435058594" width="70" height="29" as="geometry" />
        </mxCell>
        <mxCell id="mTM0F_0xe7LH2Tl3hvVo-158" value="Buyer" style="swimlane;fontStyle=1;align=center;verticalAlign=top;childLayout=stackLayout;horizontal=1;startSize=25.076923076923077;horizontalStack=0;resizeParent=1;resizeParentMax=0;resizeLast=0;collapsible=0;marginBottom=0;" vertex="1" parent="1">
          <mxGeometry x="930" y="1780" width="145" height="158.0769230769231" as="geometry" />
        </mxCell>
        <mxCell id="mTM0F_0xe7LH2Tl3hvVo-159" style="line;strokeWidth=1;fillColor=none;align=left;verticalAlign=middle;spacingTop=-1;spacingLeft=3;spacingRight=3;rotatable=0;labelPosition=right;points=[];portConstraint=eastwest;strokeColor=inherit;" vertex="1" parent="mTM0F_0xe7LH2Tl3hvVo-158">
          <mxGeometry y="25.076923076923077" width="145" height="8" as="geometry" />
        </mxCell>
        <mxCell id="mTM0F_0xe7LH2Tl3hvVo-160" value="+viewProducts()" style="text;strokeColor=none;fillColor=none;align=left;verticalAlign=top;spacingLeft=4;spacingRight=4;overflow=hidden;rotatable=0;points=[[0,0.5],[1,0.5]];portConstraint=eastwest;" vertex="1" parent="mTM0F_0xe7LH2Tl3hvVo-158">
          <mxGeometry y="33.07692307692308" width="145" height="25" as="geometry" />
        </mxCell>
        <mxCell id="mTM0F_0xe7LH2Tl3hvVo-161" value="+manageOrders()" style="text;strokeColor=none;fillColor=none;align=left;verticalAlign=top;spacingLeft=4;spacingRight=4;overflow=hidden;rotatable=0;points=[[0,0.5],[1,0.5]];portConstraint=eastwest;" vertex="1" parent="mTM0F_0xe7LH2Tl3hvVo-158">
          <mxGeometry y="58.07692307692308" width="145" height="25" as="geometry" />
        </mxCell>
        <mxCell id="mTM0F_0xe7LH2Tl3hvVo-162" value="+buyProducts()" style="text;strokeColor=none;fillColor=none;align=left;verticalAlign=top;spacingLeft=4;spacingRight=4;overflow=hidden;rotatable=0;points=[[0,0.5],[1,0.5]];portConstraint=eastwest;" vertex="1" parent="mTM0F_0xe7LH2Tl3hvVo-158">
          <mxGeometry y="83.07692307692308" width="145" height="25" as="geometry" />
        </mxCell>
        <mxCell id="mTM0F_0xe7LH2Tl3hvVo-163" value="+reviewProducts()" style="text;strokeColor=none;fillColor=none;align=left;verticalAlign=top;spacingLeft=4;spacingRight=4;overflow=hidden;rotatable=0;points=[[0,0.5],[1,0.5]];portConstraint=eastwest;" vertex="1" parent="mTM0F_0xe7LH2Tl3hvVo-158">
          <mxGeometry y="108.07692307692308" width="145" height="25" as="geometry" />
        </mxCell>
        <mxCell id="mTM0F_0xe7LH2Tl3hvVo-164" value="+returnProducts()" style="text;strokeColor=none;fillColor=none;align=left;verticalAlign=top;spacingLeft=4;spacingRight=4;overflow=hidden;rotatable=0;points=[[0,0.5],[1,0.5]];portConstraint=eastwest;" vertex="1" parent="mTM0F_0xe7LH2Tl3hvVo-158">
          <mxGeometry y="133.0769230769231" width="145" height="25" as="geometry" />
        </mxCell>
        <mxCell id="mTM0F_0xe7LH2Tl3hvVo-165" value="Administrator" style="swimlane;fontStyle=1;align=center;verticalAlign=top;childLayout=stackLayout;horizontal=1;startSize=26.148147583007812;horizontalStack=0;resizeParent=1;resizeParentMax=0;resizeLast=0;collapsible=0;marginBottom=0;" vertex="1" parent="1">
          <mxGeometry x="1379" y="1810" width="172" height="112.14814758300781" as="geometry" />
        </mxCell>
        <mxCell id="mTM0F_0xe7LH2Tl3hvVo-166" style="line;strokeWidth=1;fillColor=none;align=left;verticalAlign=middle;spacingTop=-1;spacingLeft=3;spacingRight=3;rotatable=0;labelPosition=right;points=[];portConstraint=eastwest;strokeColor=inherit;" vertex="1" parent="mTM0F_0xe7LH2Tl3hvVo-165">
          <mxGeometry y="26.148147583007812" width="172" height="8" as="geometry" />
        </mxCell>
        <mxCell id="mTM0F_0xe7LH2Tl3hvVo-167" value="+manageProducts()" style="text;strokeColor=none;fillColor=none;align=left;verticalAlign=top;spacingLeft=4;spacingRight=4;overflow=hidden;rotatable=0;points=[[0,0.5],[1,0.5]];portConstraint=eastwest;" vertex="1" parent="mTM0F_0xe7LH2Tl3hvVo-165">
          <mxGeometry y="34.14814758300781" width="172" height="26" as="geometry" />
        </mxCell>
        <mxCell id="mTM0F_0xe7LH2Tl3hvVo-168" value="+productDescription()" style="text;strokeColor=none;fillColor=none;align=left;verticalAlign=top;spacingLeft=4;spacingRight=4;overflow=hidden;rotatable=0;points=[[0,0.5],[1,0.5]];portConstraint=eastwest;" vertex="1" parent="mTM0F_0xe7LH2Tl3hvVo-165">
          <mxGeometry y="60.14814758300781" width="172" height="26" as="geometry" />
        </mxCell>
        <mxCell id="mTM0F_0xe7LH2Tl3hvVo-169" value="+orderManagement()" style="text;strokeColor=none;fillColor=none;align=left;verticalAlign=top;spacingLeft=4;spacingRight=4;overflow=hidden;rotatable=0;points=[[0,0.5],[1,0.5]];portConstraint=eastwest;" vertex="1" parent="mTM0F_0xe7LH2Tl3hvVo-165">
          <mxGeometry y="86.14814758300781" width="172" height="26" as="geometry" />
        </mxCell>
        <mxCell id="mTM0F_0xe7LH2Tl3hvVo-170" value="Product" style="swimlane;fontStyle=1;align=center;verticalAlign=top;childLayout=stackLayout;horizontal=1;startSize=27.166666666666668;horizontalStack=0;resizeParent=1;resizeParentMax=0;resizeLast=0;collapsible=0;marginBottom=0;" vertex="1" parent="1">
          <mxGeometry x="1089" y="2241.93" width="158" height="170.16666666666669" as="geometry" />
        </mxCell>
        <mxCell id="mTM0F_0xe7LH2Tl3hvVo-171" value="+name: String" style="text;strokeColor=none;fillColor=none;align=left;verticalAlign=top;spacingLeft=4;spacingRight=4;overflow=hidden;rotatable=0;points=[[0,0.5],[1,0.5]];portConstraint=eastwest;" vertex="1" parent="mTM0F_0xe7LH2Tl3hvVo-170">
          <mxGeometry y="27.166666666666668" width="158" height="27" as="geometry" />
        </mxCell>
        <mxCell id="mTM0F_0xe7LH2Tl3hvVo-172" value="+description: String" style="text;strokeColor=none;fillColor=none;align=left;verticalAlign=top;spacingLeft=4;spacingRight=4;overflow=hidden;rotatable=0;points=[[0,0.5],[1,0.5]];portConstraint=eastwest;" vertex="1" parent="mTM0F_0xe7LH2Tl3hvVo-170">
          <mxGeometry y="54.16666666666667" width="158" height="27" as="geometry" />
        </mxCell>
        <mxCell id="mTM0F_0xe7LH2Tl3hvVo-173" value="+price: Float" style="text;strokeColor=none;fillColor=none;align=left;verticalAlign=top;spacingLeft=4;spacingRight=4;overflow=hidden;rotatable=0;points=[[0,0.5],[1,0.5]];portConstraint=eastwest;" vertex="1" parent="mTM0F_0xe7LH2Tl3hvVo-170">
          <mxGeometry y="81.16666666666667" width="158" height="27" as="geometry" />
        </mxCell>
        <mxCell id="mTM0F_0xe7LH2Tl3hvVo-174" style="line;strokeWidth=1;fillColor=none;align=left;verticalAlign=middle;spacingTop=-1;spacingLeft=3;spacingRight=3;rotatable=0;labelPosition=right;points=[];portConstraint=eastwest;strokeColor=inherit;" vertex="1" parent="mTM0F_0xe7LH2Tl3hvVo-170">
          <mxGeometry y="108.16666666666667" width="158" height="8" as="geometry" />
        </mxCell>
        <mxCell id="mTM0F_0xe7LH2Tl3hvVo-175" value="+addReview()" style="text;strokeColor=none;fillColor=none;align=left;verticalAlign=top;spacingLeft=4;spacingRight=4;overflow=hidden;rotatable=0;points=[[0,0.5],[1,0.5]];portConstraint=eastwest;" vertex="1" parent="mTM0F_0xe7LH2Tl3hvVo-170">
          <mxGeometry y="116.16666666666667" width="158" height="27" as="geometry" />
        </mxCell>
        <mxCell id="mTM0F_0xe7LH2Tl3hvVo-176" value="+manageInventory()" style="text;strokeColor=none;fillColor=none;align=left;verticalAlign=top;spacingLeft=4;spacingRight=4;overflow=hidden;rotatable=0;points=[[0,0.5],[1,0.5]];portConstraint=eastwest;" vertex="1" parent="mTM0F_0xe7LH2Tl3hvVo-170">
          <mxGeometry y="143.16666666666669" width="158" height="27" as="geometry" />
        </mxCell>
        <mxCell id="mTM0F_0xe7LH2Tl3hvVo-177" value="Review" style="swimlane;fontStyle=1;align=center;verticalAlign=top;childLayout=stackLayout;horizontal=1;startSize=29.41666603088379;horizontalStack=0;resizeParent=1;resizeParentMax=0;resizeLast=0;collapsible=0;marginBottom=0;" vertex="1" parent="1">
          <mxGeometry x="880" y="2119.9999999999995" width="143" height="124.41666603088379" as="geometry" />
        </mxCell>
        <mxCell id="mTM0F_0xe7LH2Tl3hvVo-178" value="+rating: int" style="text;strokeColor=none;fillColor=none;align=left;verticalAlign=top;spacingLeft=4;spacingRight=4;overflow=hidden;rotatable=0;points=[[0,0.5],[1,0.5]];portConstraint=eastwest;" vertex="1" parent="mTM0F_0xe7LH2Tl3hvVo-177">
          <mxGeometry y="29.41666603088379" width="143" height="29" as="geometry" />
        </mxCell>
        <mxCell id="mTM0F_0xe7LH2Tl3hvVo-179" value="+comment: String" style="text;strokeColor=none;fillColor=none;align=left;verticalAlign=top;spacingLeft=4;spacingRight=4;overflow=hidden;rotatable=0;points=[[0,0.5],[1,0.5]];portConstraint=eastwest;" vertex="1" parent="mTM0F_0xe7LH2Tl3hvVo-177">
          <mxGeometry y="58.41666603088379" width="143" height="29" as="geometry" />
        </mxCell>
        <mxCell id="mTM0F_0xe7LH2Tl3hvVo-180" style="line;strokeWidth=1;fillColor=none;align=left;verticalAlign=middle;spacingTop=-1;spacingLeft=3;spacingRight=3;rotatable=0;labelPosition=right;points=[];portConstraint=eastwest;strokeColor=inherit;" vertex="1" parent="mTM0F_0xe7LH2Tl3hvVo-177">
          <mxGeometry y="87.41666603088379" width="143" height="8" as="geometry" />
        </mxCell>
        <mxCell id="mTM0F_0xe7LH2Tl3hvVo-181" value="+submitReview()" style="text;strokeColor=none;fillColor=none;align=left;verticalAlign=top;spacingLeft=4;spacingRight=4;overflow=hidden;rotatable=0;points=[[0,0.5],[1,0.5]];portConstraint=eastwest;" vertex="1" parent="mTM0F_0xe7LH2Tl3hvVo-177">
          <mxGeometry y="95.41666603088379" width="143" height="29" as="geometry" />
        </mxCell>
        <mxCell id="mTM0F_0xe7LH2Tl3hvVo-182" value="Order" style="swimlane;fontStyle=1;align=center;verticalAlign=top;childLayout=stackLayout;horizontal=1;startSize=28.066665649414062;horizontalStack=0;resizeParent=1;resizeParentMax=0;resizeLast=0;collapsible=0;marginBottom=0;" vertex="1" parent="1">
          <mxGeometry x="1240" y="2050" width="139" height="148.06666564941406" as="geometry" />
        </mxCell>
        <mxCell id="mTM0F_0xe7LH2Tl3hvVo-183" value="+orderId: int" style="text;strokeColor=none;fillColor=none;align=left;verticalAlign=top;spacingLeft=4;spacingRight=4;overflow=hidden;rotatable=0;points=[[0,0.5],[1,0.5]];portConstraint=eastwest;" vertex="1" parent="mTM0F_0xe7LH2Tl3hvVo-182">
          <mxGeometry y="28.066665649414062" width="139" height="28" as="geometry" />
        </mxCell>
        <mxCell id="mTM0F_0xe7LH2Tl3hvVo-184" value="+orderDate: Date" style="text;strokeColor=none;fillColor=none;align=left;verticalAlign=top;spacingLeft=4;spacingRight=4;overflow=hidden;rotatable=0;points=[[0,0.5],[1,0.5]];portConstraint=eastwest;" vertex="1" parent="mTM0F_0xe7LH2Tl3hvVo-182">
          <mxGeometry y="56.06666564941406" width="139" height="28" as="geometry" />
        </mxCell>
        <mxCell id="mTM0F_0xe7LH2Tl3hvVo-185" style="line;strokeWidth=1;fillColor=none;align=left;verticalAlign=middle;spacingTop=-1;spacingLeft=3;spacingRight=3;rotatable=0;labelPosition=right;points=[];portConstraint=eastwest;strokeColor=inherit;" vertex="1" parent="mTM0F_0xe7LH2Tl3hvVo-182">
          <mxGeometry y="84.06666564941406" width="139" height="8" as="geometry" />
        </mxCell>
        <mxCell id="mTM0F_0xe7LH2Tl3hvVo-186" value="+addProduct()" style="text;strokeColor=none;fillColor=none;align=left;verticalAlign=top;spacingLeft=4;spacingRight=4;overflow=hidden;rotatable=0;points=[[0,0.5],[1,0.5]];portConstraint=eastwest;" vertex="1" parent="mTM0F_0xe7LH2Tl3hvVo-182">
          <mxGeometry y="92.06666564941406" width="139" height="28" as="geometry" />
        </mxCell>
        <mxCell id="mTM0F_0xe7LH2Tl3hvVo-187" value="+processOrder()" style="text;strokeColor=none;fillColor=none;align=left;verticalAlign=top;spacingLeft=4;spacingRight=4;overflow=hidden;rotatable=0;points=[[0,0.5],[1,0.5]];portConstraint=eastwest;" vertex="1" parent="mTM0F_0xe7LH2Tl3hvVo-182">
          <mxGeometry y="120.06666564941406" width="139" height="28" as="geometry" />
        </mxCell>
        <mxCell id="mTM0F_0xe7LH2Tl3hvVo-188" value="Return" style="swimlane;fontStyle=1;align=center;verticalAlign=top;childLayout=stackLayout;horizontal=1;startSize=29.41666603088379;horizontalStack=0;resizeParent=1;resizeParentMax=0;resizeLast=0;collapsible=0;marginBottom=0;" vertex="1" parent="1">
          <mxGeometry x="1190" y="1868.08" width="146" height="124.41666603088379" as="geometry" />
        </mxCell>
        <mxCell id="mTM0F_0xe7LH2Tl3hvVo-189" value="+returnId: int" style="text;strokeColor=none;fillColor=none;align=left;verticalAlign=top;spacingLeft=4;spacingRight=4;overflow=hidden;rotatable=0;points=[[0,0.5],[1,0.5]];portConstraint=eastwest;" vertex="1" parent="mTM0F_0xe7LH2Tl3hvVo-188">
          <mxGeometry y="29.41666603088379" width="146" height="29" as="geometry" />
        </mxCell>
        <mxCell id="mTM0F_0xe7LH2Tl3hvVo-190" value="+returnDate: Date" style="text;strokeColor=none;fillColor=none;align=left;verticalAlign=top;spacingLeft=4;spacingRight=4;overflow=hidden;rotatable=0;points=[[0,0.5],[1,0.5]];portConstraint=eastwest;" vertex="1" parent="mTM0F_0xe7LH2Tl3hvVo-188">
          <mxGeometry y="58.41666603088379" width="146" height="29" as="geometry" />
        </mxCell>
        <mxCell id="mTM0F_0xe7LH2Tl3hvVo-191" style="line;strokeWidth=1;fillColor=none;align=left;verticalAlign=middle;spacingTop=-1;spacingLeft=3;spacingRight=3;rotatable=0;labelPosition=right;points=[];portConstraint=eastwest;strokeColor=inherit;" vertex="1" parent="mTM0F_0xe7LH2Tl3hvVo-188">
          <mxGeometry y="87.41666603088379" width="146" height="8" as="geometry" />
        </mxCell>
        <mxCell id="mTM0F_0xe7LH2Tl3hvVo-192" value="+processReturn()" style="text;strokeColor=none;fillColor=none;align=left;verticalAlign=top;spacingLeft=4;spacingRight=4;overflow=hidden;rotatable=0;points=[[0,0.5],[1,0.5]];portConstraint=eastwest;" vertex="1" parent="mTM0F_0xe7LH2Tl3hvVo-188">
          <mxGeometry y="95.41666603088379" width="146" height="29" as="geometry" />
        </mxCell>
        <mxCell id="mTM0F_0xe7LH2Tl3hvVo-193" value="" style="curved=1;startArrow=block;startSize=16;startFill=0;endArrow=none;exitX=0;exitY=0.5;rounded=0;exitDx=0;exitDy=0;" edge="1" parent="1" source="mTM0F_0xe7LH2Tl3hvVo-157" target="mTM0F_0xe7LH2Tl3hvVo-158">
          <mxGeometry relative="1" as="geometry">
            <Array as="points">
              <mxPoint x="1064" y="1710" />
            </Array>
            <mxPoint x="1170" y="1651.5791481430538" as="sourcePoint" />
            <mxPoint x="988.2838787902679" y="1635" as="targetPoint" />
          </mxGeometry>
        </mxCell>
        <mxCell id="mTM0F_0xe7LH2Tl3hvVo-194" value="" style="curved=1;startArrow=block;startSize=16;startFill=0;endArrow=none;exitX=1.0041170937674386;exitY=0.9265434706273513;entryX=-0.017;entryY=0.093;rounded=0;entryDx=0;entryDy=0;entryPerimeter=0;" edge="1" parent="1" source="mTM0F_0xe7LH2Tl3hvVo-155" target="mTM0F_0xe7LH2Tl3hvVo-168">
          <mxGeometry relative="1" as="geometry">
            <Array as="points">
              <mxPoint x="1279" y="1785" />
            </Array>
          </mxGeometry>
        </mxCell>
        <mxCell id="mTM0F_0xe7LH2Tl3hvVo-195" value="" style="curved=1;startArrow=none;endArrow=open;endSize=12;entryX=0.27217318983147376;entryY=0.001949287994563231;rounded=0;" edge="1" parent="1" target="mTM0F_0xe7LH2Tl3hvVo-170">
          <mxGeometry relative="1" as="geometry">
            <Array as="points">
              <mxPoint x="1098" y="2006" />
            </Array>
            <mxPoint x="1060" y="1940" as="sourcePoint" />
          </mxGeometry>
        </mxCell>
        <mxCell id="mTM0F_0xe7LH2Tl3hvVo-196" value="" style="curved=1;startArrow=none;endArrow=open;endSize=12;rounded=0;entryX=0.75;entryY=0;entryDx=0;entryDy=0;" edge="1" parent="1" target="mTM0F_0xe7LH2Tl3hvVo-177">
          <mxGeometry relative="1" as="geometry">
            <Array as="points">
              <mxPoint x="1040.76" y="1964.08" />
              <mxPoint x="1020" y="2020" />
            </Array>
            <mxPoint x="1005.76" y="1938.08" as="sourcePoint" />
            <mxPoint x="939.9953826607436" y="2202.4966660308833" as="targetPoint" />
          </mxGeometry>
        </mxCell>
        <mxCell id="mTM0F_0xe7LH2Tl3hvVo-197" value="" style="curved=1;startArrow=none;endArrow=open;endSize=12;exitX=0.975800138495236;exitY=1.0019493326109055;entryX=0.21099849776839052;entryY=0;rounded=0;" edge="1" parent="1" source="mTM0F_0xe7LH2Tl3hvVo-158" target="mTM0F_0xe7LH2Tl3hvVo-182">
          <mxGeometry relative="1" as="geometry">
            <Array as="points">
              <mxPoint x="1161" y="2006" />
            </Array>
          </mxGeometry>
        </mxCell>
        <mxCell id="mTM0F_0xe7LH2Tl3hvVo-198" value="" style="curved=1;startArrow=none;endArrow=open;endSize=12;exitX=1;exitY=0.5;entryX=0.49750730436142176;entryY=0.0026455228290860615;rounded=0;exitDx=0;exitDy=0;" edge="1" parent="1" source="mTM0F_0xe7LH2Tl3hvVo-161">
          <mxGeometry relative="1" as="geometry">
            <Array as="points">
              <mxPoint x="1150" y="1819.07" />
              <mxPoint x="1194" y="1868.08" />
            </Array>
            <mxPoint x="1068" y="1734.6469230769228" as="sourcePoint" />
            <mxPoint x="1193.634130605094" y="1867.6599999999999" as="targetPoint" />
          </mxGeometry>
        </mxCell>
        <mxCell id="mTM0F_0xe7LH2Tl3hvVo-199" value="" style="curved=1;startArrow=none;endArrow=open;endSize=12;exitX=0;exitY=0;entryX=0.9694326066398451;entryY=0.0026454622783358135;rounded=0;exitDx=0;exitDy=0;" edge="1" parent="1" source="mTM0F_0xe7LH2Tl3hvVo-170" target="mTM0F_0xe7LH2Tl3hvVo-177">
          <mxGeometry relative="1" as="geometry">
            <Array as="points">
              <mxPoint x="1072" y="2202.7599999999998" />
            </Array>
            <mxPoint x="1095.421969422096" y="2161.9266666666663" as="sourcePoint" />
          </mxGeometry>
        </mxCell>
        <mxCell id="mTM0F_0xe7LH2Tl3hvVo-200" value="" style="curved=1;startArrow=none;endArrow=open;endSize=12;exitX=0;exitY=0.5;rounded=0;exitDx=0;exitDy=0;" edge="1" parent="1" source="mTM0F_0xe7LH2Tl3hvVo-186">
          <mxGeometry relative="1" as="geometry">
            <Array as="points">
              <mxPoint x="1246" y="2111.93" />
            </Array>
            <mxPoint x="1245.6806096427204" y="2049.996665649414" as="sourcePoint" />
            <mxPoint x="1210" y="2239.93" as="targetPoint" />
          </mxGeometry>
        </mxCell>
        <mxCell id="mTM0F_0xe7LH2Tl3hvVo-201" value="" style="curved=1;startArrow=none;endArrow=open;endSize=12;exitX=0.49750730436142176;exitY=1;rounded=0;" edge="1" parent="1" target="mTM0F_0xe7LH2Tl3hvVo-182">
          <mxGeometry relative="1" as="geometry">
            <Array as="points">
              <mxPoint x="1350" y="2010" />
            </Array>
            <mxPoint x="1309.9960664367677" y="1990.4966660308837" as="sourcePoint" />
            <mxPoint x="1457.3600000000001" y="2018" as="targetPoint" />
          </mxGeometry>
        </mxCell>
      </root>
    </mxGraphModel>
  </diagram>
</mxfile>
